<?xml version="1.0" encoding="UTF-8"?>
<svg id="Layer_1" data-name="Layer 1" xmlns="http://www.w3.org/2000/svg" viewBox="0 0 1316.66 1372.46">
  <defs>
    <style>
      .cls-1 {
        fill: #befa0a;
      }
    </style>
  </defs>
  <path class="cls-1" d="M1182.11,917.66,1208.74,720.74,1313.13,1032.67c-4.12-2.56-6.77-4.37-7.37-5.14M1122.34,915.59c37.05-399.78-292.7-416.16-361.21-415.28-4.78.06-7.45-5.46-4.47-9.21,128.27-161.39,88.55-305.37,88.55-305.37,0,0-74.02-278.86-339.11-153.2C241.01,158.19,234.13,547.22,230.69,519.68c-2.68-21.48-100.6-131.91-143.61-179.51-10.65-11.79-29.13-11.86-39.89-.16l-35.88,39.03c-15.63,17-14.99,43.38,1.55,59.5,83.51,81.39,179.59,218.07,204.06,363.06,15.76,93.36,57.45,98.6,90.23,85.99,26.65-10.24,43.37-36.94,41.89-65.45-25.87-500.18,107.36-637.45,200.56-673.06,50.71-19.38,108.62-8.32,148.46,28.54,142,131.38-202.29,364.43-202.29,364.43-60.6,52.24-46.37,86.72-25.82,105.76,13.61,12.61,32.95,17.02,50.87,12.19,568.34-153.24,481.03,222.88,481.03,222.88,0,0-375.25-127.38-619.69,134.27-146.71,157.04-99.32,252.69-37.98,304.07,39.75,33.3,90.31,50.66,142.16,51.2,363.58,3.82,540.94-246.25,586.21-321.85,6.82-11.39,21.82-14.67,32.81-7.23l106.76,72.32,15.68,10.57c10.94,7.37,25.66,5.46,34.35-4.47l49.37-56.42c8.36-9.55,6.27-24.29-4.41-31.15l-184.76-118.61ZM956.24,1004.84c-231.36,289.34-430.76,246.48-491.45,249.85-61.97,3.44-134.27-79.18,51.64-185.91,152.68-87.65,361.08-87.06,430.7-84.05,10.12.44,15.44,12.19,9.11,20.1Z"/>
</svg>